<svg width="206" height="205" viewBox="0 0 206 205" fill="none" xmlns="http://www.w3.org/2000/svg">
<path d="M5.04638 19.5188C2.01918 19.7695 -0.231625 22.4267 0.0190682 25.4539L4.10435 74.785C4.35504 77.8123 7.01231 80.0631 10.0395 79.8124C13.0667 79.5617 15.3175 76.9044 15.0668 73.8772L11.4355 30.0273L55.2854 26.396C58.3126 26.1453 60.5634 23.488 60.3127 20.4608C60.062 17.4336 57.4047 15.1828 54.3775 15.4335L5.04638 19.5188ZM159.495 155.44L163.05 151.243L9.05515 20.8032L5.50031 25L1.94546 29.1968L155.94 159.637L159.495 155.44Z" fill="#05DF72"/>
<path d="M18.4952 180.034C41.9046 198.874 71.988 207.459 102.127 203.9C132.267 200.34 159.993 184.928 179.208 161.054C198.422 137.18 207.55 106.8 204.583 76.5964C201.617 46.3929 186.799 18.8403 163.39 0L18.4952 180.034Z" fill="#05DF72"/>
</svg>
